<svg version="1.1" id="Layer_1" xmlns="http://www.w3.org/2000/svg" xmlns:xlink="http://www.w3.org/1999/xlink" x="0px" y="0px"
	 width="100%" viewBox="0 0 512 512" enable-background="new 0 0 512 512" xml:space="preserve">
<path opacity="0.000000" stroke="none" 
	d="
M312.000000,513.000000 
	C209.358261,513.000000 107.216499,512.981506 5.074859,513.084045 
	C1.815364,513.087280 0.893991,512.654114 0.896522,509.076660 
	C1.015347,341.117706 1.016580,173.158676 0.892990,5.199761 
	C0.890237,1.458679 1.826932,0.912098 5.298294,0.914130 
	C173.090637,1.012377 340.883026,1.011277 508.675385,0.920159 
	C512.075562,0.918313 513.115234,1.359516 513.112244,5.173422 
	C512.982300,173.132339 512.985291,341.091370 513.100464,509.050323 
	C513.102905,512.573914 512.267822,513.095154 508.951416,513.089111 
	C443.467773,512.969482 377.983856,513.000000 312.000000,513.000000 
z"/>
<path fill="#FFFDAF" opacity="1.000000" stroke="none" 
	d="
M51.999409,290.000000 
	C51.999409,228.843063 51.743874,168.184448 52.143364,107.530136 
	C52.276276,87.350189 62.455215,71.910103 78.866982,60.591099 
	C89.526337,53.239464 101.536888,50.907867 114.393028,50.925686 
	C211.710556,51.060551 309.028900,50.830864 406.345673,51.136135 
	C426.737549,51.200100 442.292114,61.544838 453.613739,78.183754 
	C460.782318,88.719086 463.092346,100.585464 463.074799,113.268349 
	C462.939728,210.752518 463.187775,308.237640 462.845612,405.720795 
	C462.775574,425.678040 452.562439,440.997559 436.334686,452.263062 
	C425.690430,459.652374 413.716278,462.085876 400.856384,462.069305 
	C303.372192,461.943573 205.887115,462.186127 108.403931,461.848389 
	C88.243408,461.778534 72.797592,451.474792 61.510651,435.032349 
	C54.180580,424.354156 51.849098,412.327942 51.924660,399.480865 
	C52.138298,363.155029 51.999409,326.827087 51.999409,290.000000 
z"/>
<path fill="#070605" opacity="1.000000" stroke="none" 
	d="
M123.672882,301.258545 
	C119.433258,288.154602 117.380463,275.072327 116.523613,261.745667 
	C115.976089,253.230103 118.505798,248.501434 126.253311,244.317612 
	C140.353134,236.703384 155.715302,233.433762 171.336624,231.009018 
	C171.989395,230.907684 172.653305,230.824387 173.278900,230.627426 
	C173.545380,230.543533 173.726471,230.188446 174.256073,229.629990 
	C163.508316,222.112350 152.745483,214.741211 142.168701,207.112137 
	C137.665390,203.863876 132.293900,201.582123 129.659164,196.061783 
	C126.438141,189.313019 128.173050,181.822784 134.802551,178.512527 
	C148.302582,171.771683 162.015244,165.454056 175.677582,159.041519 
	C195.043198,149.952072 214.442627,140.934631 233.827377,131.885971 
	C240.293594,128.867584 246.702377,125.718048 253.237595,122.857361 
	C264.581909,117.891563 274.632751,124.562836 273.886932,136.851791 
	C273.120880,149.473831 271.688538,162.054886 270.585052,174.657150 
	C269.220093,190.245316 267.965454,205.843674 266.483032,221.420486 
	C266.222626,224.156570 267.327118,224.322601 269.484283,224.416092 
	C283.280487,225.014099 297.064117,225.682739 310.835785,226.897827 
	C334.712555,229.004501 358.393768,231.942230 380.955811,240.520874 
	C387.269684,242.921570 393.356384,245.984589 397.342346,252.068069 
	C398.436676,253.738266 399.065186,255.227707 398.931030,257.052216 
	C397.660797,274.328156 395.439087,291.360107 388.906738,307.661865 
	C380.662659,328.235168 368.481110,345.959778 352.158142,360.856018 
	C333.351807,378.018646 311.432770,389.448120 286.539886,394.535400 
	C250.860703,401.826996 216.908875,396.145996 185.634171,377.680420 
	C158.245163,361.509033 138.335663,338.378754 126.581795,308.563660 
	C125.669151,306.248627 124.734200,303.942352 123.672882,301.258545 
z"/>
<path fill="#309AFE" opacity="1.000000" stroke="none" 
	d="
M226.887238,287.769775 
	C254.951736,289.655823 282.523254,288.615448 310.115784,286.253540 
	C327.366241,284.776917 344.499969,282.859314 361.376678,279.005493 
	C370.733765,276.868805 379.968872,274.265839 388.580444,269.596069 
	C389.170074,296.447327 371.086334,339.742523 333.665619,365.060059 
	C289.106445,395.207123 241.733719,397.972229 194.377304,372.835846 
	C153.671219,351.229340 131.223373,315.942322 125.296936,269.431000 
	C150.025696,280.441040 175.415283,283.900024 201.537628,285.997986 
	C205.363678,287.186127 208.874496,286.118835 212.672150,286.790771 
	C213.045120,287.016937 212.997925,286.958374 212.966293,286.978729 
	C217.410141,288.094391 221.971146,287.172089 226.887238,287.769775 
z"/>
<path fill="#FDD601" opacity="1.000000" stroke="none" 
	d="
M263.968689,157.907074 
	C261.300781,188.891830 258.667999,219.421173 256.005585,249.947937 
	C255.586090,254.757965 255.194672,259.579895 254.499481,264.354004 
	C253.638519,270.266449 249.965912,272.105530 244.987122,268.819672 
	C235.981201,262.876007 227.204453,256.584229 218.351974,250.409164 
	C193.840714,233.311325 169.338654,216.200317 144.837036,199.088669 
	C143.067184,197.852615 141.291046,196.620026 139.585434,195.298553 
	C134.787247,191.580994 135.119049,186.997696 140.668823,184.387711 
	C158.847977,175.838364 177.121017,167.488953 195.339691,159.023315 
	C211.600708,151.467361 227.835632,143.855301 244.086075,136.276550 
	C248.448654,134.241959 252.733826,131.998337 257.219452,130.281540 
	C262.856720,128.123978 266.073486,130.527603 265.718994,136.537491 
	C265.307251,143.518219 264.582794,150.480515 263.968689,157.907074 
z"/>
<path fill="#FD0101" opacity="1.000000" stroke="none" 
	d="
M195.382645,244.692566 
	C210.315598,254.949097 224.876389,265.009216 239.374039,275.159454 
	C246.743408,280.318970 254.443649,279.719269 259.867310,273.474365 
	C262.091888,270.912933 262.469055,267.782898 262.834534,264.681763 
	C263.649780,257.764313 264.288849,250.826111 265.085266,243.472107 
	C267.116821,240.973724 269.710236,241.120712 272.172882,241.196579 
	C306.420227,242.251556 340.667572,243.403275 374.257263,251.131088 
	C379.547638,252.348190 385.017761,253.432358 389.418793,257.845703 
	C384.800812,264.789062 377.142059,266.182190 370.087891,268.189148 
	C346.099152,275.014038 321.363159,277.152924 296.612061,278.928894 
	C259.110413,281.619781 221.671555,280.308258 184.390121,275.878265 
	C167.578690,273.880676 150.759247,271.232574 134.836121,264.853271 
	C131.543167,263.533997 128.490784,261.984528 125.920837,259.040649 
	C126.366844,256.136627 128.623062,255.635300 130.582199,254.848297 
	C142.862045,249.915253 155.831924,247.998184 168.840256,246.448944 
	C175.583878,245.645813 182.275650,244.364853 189.087219,244.087753 
	C191.092270,244.006180 193.051895,243.926453 195.382645,244.692566 
z"/>
<path fill="#D6D2D2" opacity="1.000000" stroke="none" 
	d="
M389.807922,257.925354 
	C376.926880,252.556854 363.330139,250.288818 349.681183,248.342239 
	C321.959503,244.388626 294.039429,243.408554 265.627686,243.051666 
	C265.075165,232.959137 265.094727,232.576523 275.150116,233.090271 
	C306.350159,234.684357 337.544128,236.567596 367.910889,244.778061 
	C374.142731,246.462982 380.321136,248.410583 385.865631,251.929825 
	C388.042053,253.311279 390.062836,254.662094 389.807922,257.925354 
z"/>
<path fill="#D5D0D0" opacity="1.000000" stroke="none" 
	d="
M195.609436,244.582001 
	C177.727203,247.204208 159.514984,248.472183 141.758972,252.857452 
	C136.444580,254.169968 131.329956,256.003082 126.072327,258.459900 
	C123.653580,255.066116 126.672302,253.696472 128.814392,252.109848 
	C133.429016,248.691788 138.965683,247.155014 144.297440,245.537430 
	C157.143478,241.640106 170.416733,239.610855 183.668213,237.557098 
	C185.471741,237.277588 186.437378,238.166504 187.644882,239.008469 
	C190.222198,240.805603 192.837936,242.547668 195.609436,244.582001 
z"/>
<path fill="#761624" opacity="1.000000" stroke="none" 
	d="
M226.914978,287.755493 
	C222.741791,288.174347 218.191406,288.244446 213.309875,287.172852 
	C217.474457,286.993805 222.027725,286.652374 226.914978,287.755493 
z"/>
<path fill="#6B1827" opacity="1.000000" stroke="none" 
	d="
M212.716400,286.773804 
	C209.579605,287.201294 206.132690,287.133087 202.363770,286.118042 
	C205.459549,285.998352 208.956253,285.650848 212.716400,286.773804 
z"/>
<path fill="#FFFBA7" opacity="1.000000" stroke="none" 
	d="
M239.362198,239.499359 
	C236.728149,234.773590 238.914032,231.696243 242.504929,229.661591 
	C246.051743,227.651901 248.954407,229.604523 250.980484,232.599945 
	C253.101013,235.735001 252.227066,238.627335 249.509338,240.987518 
	C245.812180,244.198334 242.539795,243.143509 239.362198,239.499359 
z"/>
<path fill="#FFFCAA" opacity="1.000000" stroke="none" 
	d="
M212.127014,228.415970 
	C207.356552,229.573517 204.087845,228.244720 203.096832,223.602127 
	C202.372101,220.207123 203.541962,217.232269 207.077637,216.011993 
	C210.877426,214.700577 214.142181,215.819839 215.812119,219.564972 
	C217.490860,223.329803 216.159119,226.342194 212.127014,228.415970 
z"/>
<path fill="#FFFCA9" opacity="1.000000" stroke="none" 
	d="
M171.830566,192.788940 
	C175.146164,190.330978 178.300888,190.124603 181.177261,192.619995 
	C183.281113,194.445206 184.423859,196.785248 183.209106,199.739456 
	C181.635239,203.567047 177.606583,205.292831 173.720947,203.704300 
	C170.073059,202.212967 169.193893,197.848007 171.830566,192.788940 
z"/>
<path fill="#FFFCA8" opacity="1.000000" stroke="none" 
	d="
M237.671387,192.673584 
	C242.953949,190.108551 246.474686,190.628845 248.332794,194.145935 
	C249.748993,196.826553 249.669388,199.615845 247.618423,202.011383 
	C245.514572,204.468643 242.680588,204.506866 239.847794,203.757095 
	C236.752106,202.937744 236.045273,200.374573 235.874557,197.594925 
	C235.768951,195.875381 236.420883,194.360565 237.671387,192.673584 
z"/>
<path fill="#FFFCAA" opacity="1.000000" stroke="none" 
	d="
M198.911285,185.077026 
	C192.278458,183.422806 189.849594,178.592941 193.198990,174.329193 
	C194.920090,172.138260 197.188156,170.718246 200.141541,171.692719 
	C203.261230,172.722061 205.061844,174.774994 205.135422,178.281570 
	C205.221634,182.390793 202.976898,184.279327 198.911285,185.077026 
z"/>
<path fill="#FFFCA9" opacity="1.000000" stroke="none" 
	d="
M237.606720,167.370422 
	C234.747940,171.343124 230.354904,172.432770 227.303940,170.068497 
	C224.191086,167.656265 223.961288,164.234390 225.714737,161.188705 
	C227.726822,157.693695 231.244324,157.175659 234.786911,158.904800 
	C238.207642,160.574448 238.341721,163.714706 237.606720,167.370422 
z"/>
</svg>